<svg width="14" height="14" viewBox="0 0 14 14" fill="none" xmlns="http://www.w3.org/2000/svg">
<path d="M8.0627 0.700928C7.53801 0.700928 7.1127 1.12626 7.1127 1.65093C7.1127 2.17559 7.53801 2.60093 8.0627 2.60093H10.5192L4.54094 8.57918C4.16995 8.95016 4.16995 9.5517 4.54094 9.92267C4.91194 10.2936 5.51345 10.2936 5.88445 9.92267L11.8627 3.94443V6.40093C11.8627 6.92559 12.288 7.35093 12.8127 7.35093C13.3374 7.35093 13.7627 6.92559 13.7627 6.40093V1.65093C13.7627 1.12626 13.3374 0.700928 12.8127 0.700928H8.0627Z" fill="#4F4F4F"/>
<path d="M2.36265 2.60083C1.31331 2.60083 0.462646 3.45149 0.462646 4.50083V12.1008C0.462646 13.1502 1.31331 14.0008 2.36265 14.0008H9.96265C11.012 14.0008 11.8626 13.1502 11.8626 12.1008V9.25083C11.8626 8.72615 11.4373 8.30083 10.9126 8.30083C10.388 8.30083 9.96265 8.72615 9.96265 9.25083V12.1008H2.36265V4.50083H5.21265C5.73731 4.50083 6.16265 4.0755 6.16265 3.55083C6.16265 3.02616 5.73731 2.60083 5.21265 2.60083H2.36265Z" fill="#4F4F4F"/>
</svg>
