<svg width="97" height="33" viewBox="0 0 97 33" fill="none" xmlns="http://www.w3.org/2000/svg">
<path d="M8.02693 15.5695C8.04163 13.3956 8.83536 11.2963 10.2687 9.64047C10.9779 8.88717 11.8351 8.28305 12.7886 7.86462C13.7421 7.44619 14.7721 7.22215 15.8162 7.20604V0C13.1106 0.0565627 10.4615 0.772049 8.10647 2.08233C5.62545 3.46437 3.57255 5.48222 2.16661 7.92073C0.820592 10.258 0.0799057 12.8847 0.00976562 15.5695H8.02693Z" fill="#F77D1A"/>
<path d="M51.2877 26.3385V32.7398H47.9031C45.0308 32.7398 42.7965 32.0359 41.1999 30.6279C39.6034 29.22 38.8049 26.8902 38.8045 23.6387V14.7116H35.5081V8.44094H38.8045V2.4751H46.321V8.44094H51.2443V14.7116H46.321V23.7694C46.2388 24.1214 46.2486 24.4882 46.3495 24.8355C46.4503 25.1829 46.6389 25.4995 46.8977 25.7559C47.1566 26.0123 47.4772 26.2002 47.8298 26.302C48.1824 26.4039 48.5555 26.4164 48.9143 26.3385H51.2877Z" fill="white"/>
<path d="M69.3966 26.3385V32.7398H66.012C63.1397 32.7398 60.9053 32.0359 59.3088 30.6279C57.7123 29.22 56.9138 26.8902 56.9134 23.6387V14.7116H53.6169V8.44094H56.9134V2.4751H64.4299V8.44094H69.3532V14.7116H64.4299V23.7694C64.3517 24.4878 64.565 25.2074 65.0234 25.7722C65.5924 26.2048 66.308 26.4074 67.0239 26.3385H69.3966Z" fill="white"/>
<path d="M96.9979 8.63477V32.7425H89.4399V28.3795C88.7481 29.7786 87.6565 30.9494 86.2985 31.7486C84.8305 32.6042 83.1478 33.0382 81.4415 33.0013C80.1856 33.0571 78.9327 32.838 77.7735 32.3598C76.6143 31.8817 75.5776 31.1564 74.7383 30.2365C73.0821 28.3937 72.2542 25.8594 72.2546 22.6337V8.63477H79.7271V21.7239C79.6386 23.1153 80.1035 24.486 81.0237 25.547C81.4742 26.005 82.0188 26.3633 82.6214 26.5981C83.224 26.8328 83.8706 26.9384 84.518 26.908C85.1879 26.9413 85.8572 26.8311 86.4795 26.585C87.1018 26.3388 87.6622 25.9627 88.1219 25.4826C89.0675 24.3412 89.5386 22.8904 89.4406 21.4217V8.63477H96.9979Z" fill="white"/>
<path d="M22.5088 23.1093C20.8687 24.6764 18.6698 25.5506 16.3823 25.5447C14.0948 25.5388 11.9005 24.6533 10.2688 23.0777C8.80264 21.3793 8.00382 19.221 8.01708 16.9937H-0.00341797C0.045123 19.7316 0.789303 22.4142 2.16145 24.7975C3.56759 27.2359 5.62075 29.2535 8.10198 30.6352C10.6555 32.0157 13.5226 32.7396 16.4369 32.7396C19.3513 32.7396 22.2184 32.0157 24.7719 30.6352C25.8916 30.0072 26.9282 29.2461 27.8585 28.369L22.5088 23.1093Z" fill="#F0252B"/>
<path d="M17.0315 7.208C18.0776 7.22525 19.109 7.45201 20.0629 7.87443C21.0167 8.29685 21.8729 8.90604 22.579 9.66475C24.0762 11.3 24.8352 13.4918 24.8562 16.2402C24.9124 18.2485 24.3586 20.2278 23.2654 21.9255L28.7087 27.2752C29.4708 26.442 30.1403 25.5312 30.7058 24.5583C32.1244 22.0076 32.8679 19.1474 32.8679 16.2405C32.8679 13.3336 32.1244 10.4734 30.7058 7.92269C29.3123 5.48248 27.266 3.46346 24.7887 2.08429C22.4195 0.770214 19.7554 0.0547036 17.0355 0.00195312L17.0315 7.208Z" fill="white"/>
</svg>
