<svg width="17" height="18" viewBox="0 0 17 18" fill="none" xmlns="http://www.w3.org/2000/svg">
<g clip-path="url(#clip0_28_5566)">
<path d="M10.9237 14.1267H6.30141C6.00688 14.1267 5.76807 14.3804 5.76807 14.6934C5.76807 15.0064 6.00685 15.2601 6.30141 15.2601H10.9236C11.2182 15.2601 11.457 15.0064 11.457 14.6934C11.457 14.3804 11.2182 14.1267 10.9237 14.1267Z" fill="#4F4F4F"/>
<path d="M10.9237 12.3394H6.30141C6.00688 12.3394 5.76807 12.5931 5.76807 12.906C5.76807 13.219 6.00685 13.4727 6.30141 13.4727H10.9236C11.2182 13.4727 11.457 13.219 11.457 12.906C11.457 12.5931 11.2182 12.3394 10.9237 12.3394Z" fill="#4F4F4F"/>
<path d="M15.3681 5.297H13.6711V2.01736C13.6711 1.70442 13.4324 1.45068 13.1378 1.45068H4.0873C3.79277 1.45068 3.55396 1.70439 3.55396 2.01736V5.297H1.85699C1.1708 5.297 0.612549 5.89017 0.612549 6.61925V12.3203C0.612549 13.0494 1.1708 13.6425 1.85699 13.6425H3.55405V16.6844C3.55405 16.9973 3.79283 17.2511 4.08739 17.2511H13.1377C13.4322 17.2511 13.671 16.9973 13.671 16.6844V13.6425H15.3681C16.0543 13.6425 16.6125 13.0494 16.6125 12.3203V6.61925C16.6125 5.89021 16.0543 5.297 15.3681 5.297ZM4.62061 2.58404H12.6045V5.297H4.62061V2.58404ZM12.6044 16.1177H4.62074C4.62074 16.007 4.62074 11.6186 4.62074 11.4816H12.6044C12.6044 11.622 12.6044 16.0112 12.6044 16.1177ZM13.1378 8.62445H11.7802C11.4857 8.62445 11.2469 8.37075 11.2469 8.05777C11.2469 7.7448 11.4856 7.4911 11.7802 7.4911H13.1378C13.4323 7.4911 13.6711 7.7448 13.6711 8.05777C13.6711 8.37075 13.4324 8.62445 13.1378 8.62445Z" fill="#4F4F4F"/>
</g>
<defs>
<clipPath id="clip0_28_5566">
<rect width="16" height="17" fill="white" transform="translate(0.612549 0.85083)"/>
</clipPath>
</defs>
</svg>
