<svg width="19" height="24" viewBox="0 0 19 24" fill="none" xmlns="http://www.w3.org/2000/svg">
<path d="M0.740234 0.806641V18.416C0.740234 18.7885 1.04162 19.0898 1.41406 19.0898H13.543C13.9154 19.0898 14.2168 18.7885 14.2168 18.416V0.806641C14.2168 0.434193 13.9154 0.132812 13.543 0.132812H1.41406C1.04162 0.132812 0.740234 0.434193 0.740234 0.806641ZM11.5215 15.6758H8.82617C8.45372 15.6758 8.15234 15.3744 8.15234 15.002C8.15234 14.6295 8.45372 14.3281 8.82617 14.3281H11.5215C11.8939 14.3281 12.1953 14.6295 12.1953 15.002C12.1953 15.3744 11.8939 15.6758 11.5215 15.6758ZM3.43555 3.54688H7.47852C7.85096 3.54688 8.15234 3.84826 8.15234 4.2207C8.15234 4.59315 7.85096 4.89453 7.47852 4.89453H3.43555C3.0631 4.89453 2.76172 4.59315 2.76172 4.2207C2.76172 3.84826 3.0631 3.54688 3.43555 3.54688ZM3.43555 6.24219H11.5215C11.8939 6.24219 12.1953 6.54357 12.1953 6.91602C12.1953 7.28846 11.8939 7.58984 11.5215 7.58984H3.43555C3.0631 7.58984 2.76172 7.28846 2.76172 6.91602C2.76172 6.54357 3.0631 6.24219 3.43555 6.24219ZM3.43555 8.9375H11.5215C11.8939 8.9375 12.1953 9.23888 12.1953 9.61133C12.1953 9.98378 11.8939 10.2852 11.5215 10.2852H3.43555C3.0631 10.2852 2.76172 9.98378 2.76172 9.61133C2.76172 9.23888 3.0631 8.9375 3.43555 8.9375ZM3.43555 11.6328H11.5215C11.8939 11.6328 12.1953 11.9342 12.1953 12.3066C12.1953 12.6791 11.8939 12.9805 11.5215 12.9805H3.43555C3.0631 12.9805 2.76172 12.6791 2.76172 12.3066C2.76172 11.9342 3.0631 11.6328 3.43555 11.6328Z" fill="white"/>
<path d="M5.45703 23.1328H17.5859C17.9584 23.1328 18.2598 22.8314 18.2598 22.459V4.89453C18.2598 4.52208 17.9584 4.2207 17.5859 4.2207H15.5645V18.416C15.5645 19.5307 14.6577 20.4375 13.543 20.4375H4.7832V22.459C4.7832 22.8314 5.08458 23.1328 5.45703 23.1328Z" fill="#4F4F4F"/>
</svg>
