<svg width="21" height="25" viewBox="0 0 21 25" fill="none" xmlns="http://www.w3.org/2000/svg">
<path d="M17.0017 23.1822C16.664 23.3515 16.3518 23.53 16.0211 23.6691C15.628 23.836 15.2209 23.9705 14.7954 24.1328C14.553 23.5634 14.1249 23.0934 13.5813 22.7997C13.0077 22.5009 12.3408 22.4371 11.7212 22.6218C11.1017 22.8065 10.5779 23.2253 10.2603 23.7897C10.1331 24.0215 10.0291 24.0911 9.77699 23.9844C9.1942 23.7271 8.60677 23.4883 8.00086 23.2332C8.25816 22.6414 8.28863 21.9752 8.08643 21.3622C7.88726 20.7577 7.46468 20.2526 6.90552 19.9507C6.34635 19.6489 5.69307 19.5732 5.07999 19.7393C4.84872 19.7973 4.73772 19.7741 4.65447 19.5492C4.47177 19.06 4.26365 18.5801 4.09251 18.0862C4.08531 18.0264 4.09246 17.9658 4.11337 17.9093C4.13429 17.8529 4.16835 17.8022 4.21275 17.7617C5.97036 16.6187 5.94262 14.4323 4.1457 13.3287C4.09965 13.2967 4.0509 13.2688 4 13.2453C4.29139 12.5938 4.57584 11.94 4.88805 11.2978C4.92043 11.2352 5.13089 11.2282 5.24883 11.2491C5.86029 11.37 6.49473 11.255 7.02518 10.9269C7.55564 10.5989 7.94296 10.0822 8.10958 9.48009C8.19345 9.08469 8.21142 8.67809 8.16276 8.2768C8.14889 8.06118 8.18587 7.9499 8.37551 7.87571L10.1516 7.16625C10.1836 7.14851 10.2188 7.13755 10.2551 7.13404C10.2914 7.13053 10.3281 7.13456 10.3628 7.14587C10.3975 7.15718 10.4295 7.17553 10.4569 7.19977C10.4842 7.22402 10.5062 7.25365 10.5217 7.28681C11.6178 8.80077 13.5628 8.82628 14.6844 7.34014C14.7977 7.19176 14.8902 7.15003 15.0614 7.22422C15.584 7.45606 16.109 7.66472 16.6363 7.87339C16.8676 7.96844 16.9254 8.10523 16.8814 8.35795C16.8188 8.71488 16.8342 9.08118 16.9265 9.43158C17.0188 9.78198 17.1857 10.1081 17.4159 10.3876C17.6461 10.667 17.934 10.8931 18.2597 11.0503C18.5855 11.2074 18.9413 11.2918 19.3028 11.2978C19.4064 11.311 19.5117 11.3039 19.6127 11.2769C20.0174 11.1146 20.207 11.3163 20.3412 11.6641C20.4961 12.0652 20.6649 12.4616 20.8338 12.8558C20.8563 12.8919 20.8707 12.9324 20.8762 12.9746C20.8817 13.0168 20.8781 13.0598 20.8656 13.1004C20.8531 13.1411 20.832 13.1786 20.8038 13.2104C20.7755 13.2422 20.7408 13.2676 20.7019 13.2847C19.1316 14.3836 19.1848 16.5306 20.8083 17.5391C20.9933 17.655 21.0396 17.7547 20.9679 17.9541C20.7528 18.4943 20.5585 19.0415 20.3319 19.577C20.2985 19.6274 20.2531 19.6686 20.1998 19.6969C20.1465 19.7252 20.0869 19.7398 20.0266 19.7393C19.5817 19.6148 19.1113 19.6155 18.6668 19.7413C18.2222 19.867 17.8208 20.1131 17.5065 20.4524C17.1922 20.7916 16.9771 21.2111 16.8848 21.6648C16.7925 22.1186 16.8265 22.589 16.9832 23.0246C16.9925 23.0767 16.9987 23.1294 17.0017 23.1822ZM15.9471 15.624C15.9462 15.1688 15.8557 14.7182 15.6807 14.2981C15.5058 13.878 15.2498 13.4967 14.9275 13.176C14.6052 12.8552 14.223 12.6014 13.8027 12.4291C13.3823 12.2568 12.9323 12.1694 12.4782 12.1718C11.5665 12.1773 10.6942 12.5451 10.0526 13.1944C9.41095 13.8437 9.05236 14.7216 9.05544 15.6356C9.05387 16.0912 9.14276 16.5426 9.31694 16.9634C9.49112 17.3843 9.74709 17.7662 10.07 18.0868C10.3928 18.4075 10.7761 18.6605 11.1975 18.8312C11.6189 19.0018 12.07 19.0867 12.5244 19.0809C13.4353 19.0766 14.3072 18.7102 14.9489 18.0621C15.5906 17.414 15.9496 16.5372 15.9471 15.624Z" fill="white"/>
<path d="M0.000133275 5.04763C0.871957 5.06906 1.23183 6.15361 0.691166 7.29174L1.34672 8.13194C2.16786 7.27459 3.07517 7.84044 3.18668 9H3.63442C4.02472 9 4.02472 9 4.1413 8.51988C4.18551 8.33592 4.26168 8.16689 4.36421 8.02522C4.46674 7.88355 4.59301 7.77285 4.73372 7.70129C4.87444 7.62972 5.02602 7.5991 5.1773 7.61168C5.32858 7.62426 5.4757 7.67973 5.60784 7.77399C5.67374 7.819 5.73457 7.87687 5.82919 7.95618L6.40027 7.191C6.13669 6.76232 6.03194 6.33365 6.17218 5.83639C6.22119 5.63431 6.31213 5.45268 6.43549 5.31051C6.55885 5.16835 6.7101 5.07089 6.87336 5.02834C7.04231 4.98333 7.10143 4.88259 7.08961 4.67897C7.08116 4.56109 7.08961 4.44106 7.08961 4.32317C7.08961 4.02739 7.06088 3.80876 6.75169 3.69731C6.6136 3.6412 6.48726 3.54633 6.38205 3.41974C6.27685 3.29316 6.19549 3.13811 6.14402 2.96614C6.09256 2.79417 6.07231 2.60969 6.08479 2.42643C6.09727 2.24316 6.14216 2.06582 6.21611 1.9076C6.2372 1.87702 6.253 1.84118 6.26253 1.80239C6.27206 1.7636 6.2751 1.72272 6.27144 1.68235C6.26778 1.64199 6.25751 1.60304 6.24129 1.56801C6.22507 1.53297 6.20326 1.50263 6.17725 1.47892C5.9914 1.26459 5.80891 1.03739 5.63319 0.835913C4.71406 1.35246 4.06695 1.02239 3.92672 0H3.00929C2.99372 0.0375634 2.98125 0.0770687 2.9721 0.117885C2.94885 0.330082 2.8842 0.531549 2.78398 0.703987C2.68377 0.876426 2.55117 1.01437 2.39826 1.1053C2.24534 1.19622 2.07694 1.23724 1.90836 1.22463C1.73977 1.21203 1.57633 1.14619 1.43289 1.0331C1.40158 1.01598 1.36754 1.00842 1.3335 1.01102C1.29946 1.01363 1.26636 1.02633 1.2369 1.04811C1.03922 1.22815 0.851673 1.42963 0.687784 1.59681C1.09159 2.50774 1.01387 3.22148 0.518826 3.62872C0.356598 3.7333 0.18687 3.81799 0.0119513 3.88164L0.000133275 5.04763ZM2.13407 4.52894C2.12959 4.29674 2.16128 4.0657 2.22736 3.84909C2.29344 3.63247 2.39259 3.43455 2.51912 3.26667C2.64565 3.09879 2.79708 2.96426 2.9647 2.8708C3.13231 2.77735 3.31281 2.7268 3.49587 2.72208C3.67912 2.71725 3.86133 2.75837 4.03203 2.84309C4.20272 2.92781 4.35856 3.05445 4.49058 3.21576C4.6226 3.37706 4.72821 3.56985 4.80135 3.78306C4.87449 3.99627 4.91373 4.22571 4.91681 4.4582C4.92406 4.92746 4.7845 5.38125 4.52865 5.72028C4.2728 6.05931 3.9215 6.25596 3.55164 6.26721C3.36816 6.27175 3.18577 6.23029 3.01496 6.1452C2.84414 6.06011 2.68824 5.93307 2.55622 5.77137C2.4242 5.60966 2.31866 5.41648 2.24563 5.20291C2.17261 4.98933 2.13355 4.75956 2.13069 4.52679L2.13407 4.52894Z" fill="#F07C22"/>
</svg>
