<svg width="21" height="25" viewBox="0 0 21 25" fill="none" xmlns="http://www.w3.org/2000/svg">
<path d="M5.42812 5.50924C5.21221 7.06383 4.99629 8.6249 4.78038 10.2313H0C0.0791628 8.04468 0.841836 5.93788 2.18074 4.20728L5.42812 5.50924Z" fill="white"/>
<path d="M18.8192 4.20728C20.161 5.93793 20.924 8.04706 20.9999 10.2356H16.2195C16.0036 8.65298 15.7877 7.08112 15.5718 5.50709L18.8192 4.20728Z" fill="white"/>
<path d="M20.9999 11.0325C20.9184 13.239 20.1415 15.3633 18.7803 17.1019C18.3268 16.8859 17.8864 16.683 17.4632 16.4541C17.4187 16.414 17.3831 16.365 17.3585 16.3104C17.334 16.2558 17.3211 16.1966 17.3207 16.1367C17.3002 15.7289 17.3002 15.3203 17.3207 14.9125C17.3345 14.7812 17.3103 14.6487 17.2509 14.5308C17.1916 14.413 17.0997 14.3146 16.986 14.2475C16.7096 14.0682 16.4117 13.9236 16.1418 13.7379C16.0904 13.7011 16.0474 13.6537 16.0158 13.599C15.9841 13.5443 15.9645 13.4834 15.9583 13.4205C16.0101 12.6346 16.0878 11.8486 16.1612 11.0454L20.9999 11.0325Z" fill="white"/>
<path d="M2.25211 17.1017C0.939344 15.5709 -0.0754621 12.7834 0.0368141 11.0259H4.84526C4.91867 11.842 4.9964 12.6496 5.06118 13.4614C5.05309 13.5196 5.03096 13.575 4.99673 13.6227C4.96251 13.6705 4.9172 13.7092 4.86469 13.7356C3.89738 14.0789 3.51737 14.7504 3.70306 15.748C3.7959 16.2424 3.59943 16.5188 3.12226 16.6699C2.8207 16.7894 2.52964 16.9338 2.25211 17.1017Z" fill="white"/>
<path d="M10.8931 6.13325L14.7601 5.70142C15.1689 7.17893 15.3866 8.70276 15.4078 10.2356H10.9038L10.8931 6.13325Z" fill="white"/>
<path d="M10.105 10.24H5.60742C5.63026 8.70831 5.84277 7.1853 6.24007 5.70581L10.105 6.13764V10.24Z" fill="white"/>
<path d="M10.1092 0.549805V5.38847L6.49902 5.00415C7.00858 2.92704 8.61502 0.63833 10.1092 0.549805Z" fill="white"/>
<path d="M10.893 0.521729C11.4895 0.624477 12.0381 0.91317 12.4606 1.34653C13.497 2.32247 14.0605 3.57478 14.5614 4.99335L10.8909 5.39495L10.893 0.521729Z" fill="white"/>
<path d="M18.3485 3.62877L15.2934 4.82926C14.6607 3.08682 13.918 1.48472 12.4519 0.342529C14.7514 0.748451 16.6644 1.83883 18.3485 3.62877Z" fill="white"/>
<path d="M2.66016 3.6309C4.33566 1.8388 6.25082 0.752731 8.55248 0.340332C7.10153 1.48469 6.34366 3.0652 5.71967 4.82923L2.66016 3.6309Z" fill="white"/>
<path d="M5.75422 13.1614C5.70456 12.5136 5.65058 11.7947 5.59229 11.0325H10.1006V12.4273L5.75422 13.1614Z" fill="white"/>
<path d="M15.4163 11.0325C15.3559 11.7968 15.2997 12.5137 15.2501 13.1636L10.8972 12.423V11.0325H15.4163Z" fill="white"/>
<path d="M3.68363 17.1904V18.5939L2.85449 17.6136L3.68363 17.1904Z" fill="white"/>
<path d="M17.3315 18.5334V17.2012L18.2837 17.6784L17.4201 18.5895L17.3315 18.5334Z" fill="white"/>
<path d="M4.48253 19.1077C5.5621 19.9864 6.76693 20.3017 8.00628 20.4938C10.0157 20.8255 12.0712 20.7521 14.0519 20.2779C14.9156 20.062 15.762 19.7576 16.4615 19.1552C16.6321 20.3686 16.6321 20.7875 15.6152 21.3791C14.5982 21.9707 13.5251 22.1693 12.4109 22.2967C10.525 22.5514 8.60711 22.4243 6.77123 21.9232C6.23142 21.7559 5.71102 21.5315 5.21881 21.2539C4.9698 21.1402 4.7642 20.949 4.63268 20.709C4.50116 20.4689 4.45078 20.1927 4.48901 19.9217C4.50107 19.6504 4.4989 19.3787 4.48253 19.1077Z" fill="#F2994A"/>
<path d="M16.509 16.6226C16.5426 17.0007 16.5367 17.3813 16.4917 17.7583C16.4368 18.065 16.2755 18.3426 16.0361 18.5421C15.4936 18.9121 14.901 19.2029 14.2764 19.4057C11.8772 20.0698 9.34548 20.0914 6.93526 19.4683C6.34119 19.301 5.76871 19.0648 5.22952 18.7644C4.97107 18.6546 4.75643 18.4621 4.61926 18.2171C4.48208 17.972 4.43018 17.6884 4.47168 17.4106C4.48681 17.1633 4.48681 16.9152 4.47168 16.6679C6.80789 18.1987 9.3924 18.283 12.0287 18.0973C13.3242 18.0044 14.6197 17.7496 15.7813 17.1192C16.0231 16.9788 16.2391 16.8061 16.509 16.6226Z" fill="#F2994A"/>
<path d="M16.4851 21.6923C16.7011 23.0482 16.4484 23.5535 15.2177 24.0911C13.4753 24.8533 11.6271 24.9807 9.75507 24.9072C8.56789 24.8785 7.39173 24.6718 6.26587 24.294C6.09234 24.2311 5.92225 24.159 5.75631 24.0781C4.56229 23.5103 4.314 23.0309 4.52344 21.6858C6.32201 22.9683 8.40991 23.1842 10.5043 23.1842C12.5987 23.1842 14.6866 22.9726 16.4851 21.6923Z" fill="#F2994A"/>
<path d="M10.4741 17.7366C9.01236 17.6848 7.57005 17.5466 6.19683 17.0219C5.74181 16.8524 5.31463 16.6159 4.92941 16.3202C4.29893 15.8236 4.33132 15.1629 4.95531 14.6512C5.63761 14.0898 6.46672 13.8329 7.29799 13.6558C9.58412 13.1386 11.962 13.1883 14.2246 13.8005C14.8196 13.9685 15.3865 14.2239 15.9066 14.5584C16.7486 15.0981 16.7378 15.8538 15.9389 16.4411C15.0753 17.0889 14.0605 17.3264 13.0305 17.4862C12.1863 17.6179 11.327 17.6567 10.4741 17.7366ZM10.4914 13.753C9.2111 13.7114 7.93301 13.8859 6.71071 14.269C6.15622 14.4676 5.63165 14.7415 5.15178 15.083C4.78472 15.3378 4.79768 15.6595 5.15178 15.9467C5.50537 16.2397 5.90621 16.4704 6.33715 16.629C8.93332 17.4853 11.7302 17.5215 14.3476 16.7326C14.8916 16.5464 15.4019 16.2738 15.8591 15.9251C16.2045 15.6833 16.1873 15.3702 15.8591 15.0938C15.5813 14.8535 15.2691 14.6563 14.9328 14.5087C13.5272 13.8998 12.0157 13.7595 10.4914 13.7595V13.753Z" fill="#F2994A"/>
<path d="M10.4915 13.7595C12.0158 13.7595 13.5143 13.9063 14.9415 14.5066C15.2778 14.6542 15.59 14.8514 15.8678 15.0917C16.1938 15.3681 16.2111 15.6812 15.8678 15.923C15.4106 16.2716 14.9003 16.5443 14.3563 16.7305C11.7389 17.5193 8.94205 17.4832 6.34588 16.6269C5.91493 16.4683 5.5141 16.2376 5.1605 15.9446C4.80424 15.666 4.79129 15.3443 5.1605 15.0809C5.64038 14.7394 6.16492 14.4655 6.71941 14.2669C7.93945 13.8876 9.21455 13.7161 10.4915 13.7595Z" fill="#F2994A"/>
</svg>
