<svg width="46" height="16" viewBox="0 0 46 16" fill="none" xmlns="http://www.w3.org/2000/svg">
<path fill-rule="evenodd" clip-rule="evenodd" d="M28.7096 0.0935059C30.2407 0.0935059 31.4789 0.435475 32.2596 0.745194L31.7213 4.0506L31.3633 3.88806C30.6471 3.57855 29.7017 3.26927 28.415 3.30195C26.8524 3.30195 26.1515 3.96922 26.1353 4.62069C26.1353 5.33731 26.9831 5.80957 28.3674 6.50996C30.6478 7.60101 31.7055 8.93621 31.6897 10.6787C31.6577 13.8543 28.954 15.9063 24.801 15.9063C23.0253 15.8899 21.3151 15.5146 20.3868 15.0916L20.9406 11.6555L21.4618 11.9001C22.7485 12.4706 23.5952 12.7143 25.1754 12.7143C26.315 12.7143 27.5367 12.2416 27.5523 11.2161C27.5523 10.5484 27.0318 10.0595 25.5005 9.31042C24.0023 8.57735 21.9992 7.35622 22.0317 5.15767C22.0486 2.17778 24.801 0.0935059 28.7096 0.0935059ZM13.9551 15.678H17.9131L20.3885 0.37085H16.4307L13.9551 15.678ZM37.5221 10.2552C37.8481 9.37587 39.1023 5.97242 39.1023 5.97242C39.0957 5.98562 39.1475 5.84201 39.2245 5.62856L39.2246 5.62819C39.3382 5.31325 39.5066 4.84647 39.6231 4.50693L39.8997 5.82589C39.8997 5.82589 40.6492 9.48993 40.8119 10.2552H37.5221ZM42.4077 0.37085H39.3462C38.4021 0.37085 37.6849 0.647454 37.2775 1.64089L31.3985 15.6778H35.5515C35.5515 15.6778 36.2352 13.7886 36.3821 13.3817H41.4638C41.5775 13.9191 41.9361 15.6778 41.9361 15.6778H45.6008L42.4077 0.37085ZM6.77272 10.8089L10.6489 0.37085H14.8341L8.61286 15.6618H4.42743L0.877014 2.2757C3.38507 3.59531 5.63254 6.24924 6.34916 8.69194L6.77272 10.8089Z" fill="#00579F"/>
</svg>
